<svg id="Capa_1" enable-background="new 0 0 512 512" height="512" viewBox="0 0 512 512" width="512" xmlns="http://www.w3.org/2000/svg"><g id="XMLID_1009_"><g id="XMLID_2358_"><g id="XMLID_2359_"><g id="XMLID_2360_"><path id="XMLID_543_" d="m256.13 20c-2.64 0-5.21-1.07-7.07-2.93-1.87-1.86-2.93-4.44-2.93-7.07s1.06-5.21 2.93-7.07c1.86-1.86 4.43-2.93 7.07-2.93 2.63 0 5.21 1.07 7.07 2.93 1.859 1.86 2.93 4.44 2.93 7.07s-1.07 5.21-2.93 7.07-4.44 2.93-7.07 2.93z"/></g></g></g><g id="XMLID_1455_"><path id="XMLID_1354_" d="m371.282 294.923c-.01.009-.02.019-.03.028-.104.109-.006.009.03-.028z"/><path id="XMLID_524_" d="m391.277 67.03c-21.981-28.836-53.164-50.255-87.805-60.31-5.302-1.541-10.852 1.511-12.392 6.816-1.54 5.304 1.512 10.852 6.815 12.391 63.652 18.475 108.105 77.72 108.105 144.073 0 32.615-10.726 64.212-30.031 89.991-1.349-2.505-3.074-4.859-5.187-6.972-5.434-5.433-12.45-8.339-19.579-8.725-.167-3.021-.771-6.021-1.843-8.889 13.512-19.203 20.64-41.673 20.64-65.405 0-62.86-51.141-114-114-114s-114 51.14-114 114c0 23.713 7.501 46.966 21.202 66.184l-7.783 13.947c-4.493 8.051-6.211 17.234-5.212 26.16-27.873-27.825-44.207-66.008-44.207-106.291 0-66.463 44.547-125.735 108.331-144.139 5.307-1.531 8.366-7.074 6.836-12.38-1.531-5.307-7.076-8.364-12.381-6.835-34.703 10.013-65.95 31.421-87.984 60.281-22.768 29.819-34.802 65.462-34.802 103.073 0 59.835 31.804 115.565 83.165 146.146l25.723 43.893v15.611h-34.055c-5.522 0-10 4.478-10 10v56c0 5.522 4.478 10 10 10h34.055v50.35c0 5.522 4.478 10 10 10h102.36c5.522 0 10-4.478 10-10v-50.35h34c5.522 0 10-4.478 10-10v-56c0-5.522-4.478-10-10-10h-34v-7.883c12.705-13.555 22.527-29.836 28.596-47.388l25.408-25.429c.055-.055.049-.048.03-.028 34.784-32.118 54.718-77.574 54.718-124.922 0-37.564-12.007-73.17-34.723-102.97zm-196.444 364.62h-24v-36h24zm-32.833-261.65c0-51.832 42.168-94 94-94s94 42.168 94 94c0 17.85-4.891 34.831-14.2 49.69-4.005-2.211-8.413-3.437-12.865-3.68-.389-7.122-3.294-14.132-8.723-19.56-5.275-5.276-12.169-8.341-19.563-8.739-.393-7.117-3.297-14.12-8.722-19.545-11.697-11.697-30.729-11.696-42.427 0l-28.703 28.703c-1.862 1.862-3.435 3.934-4.728 6.157-13.396-2.263-27.178 3.029-35.584 13.824-8.192-14.161-12.485-30.112-12.485-46.85zm96.735 67.786 27.193-27.193c1.889-1.889 4.399-2.929 7.071-2.929 2.671 0 5.182 1.04 7.07 2.929 3.899 3.899 3.899 10.243 0 14.142l-28.703 28.703c-3.799 3.8-9.913 3.887-13.831.281.95-2.784 1.52-5.718 1.67-8.734.122-2.446-.048-4.857-.47-7.199zm-10.149-18.135c-2.648-2.37-5.704-4.335-9.114-5.733-2.918-1.196-6.118-2.494-9.56-3.878l27.732-27.732c1.889-1.889 4.399-2.929 7.071-2.929 2.671 0 5.182 1.04 7.07 2.929 3.899 3.899 3.899 10.243 0 14.142zm36.924 47.929 28.703-28.704c1.949-1.95 4.511-2.925 7.071-2.925s5.122.975 7.071 2.925c3.899 3.899 3.899 10.243 0 14.142l-28.704 28.703c-3.898 3.899-10.243 3.897-14.142 0-3.899-3.898-3.899-10.242.001-14.141zm55.738 128.07v36h-24v-36zm-41.071-39c-1.875 1.876-2.929 4.419-2.929 7.071v128.279h-82.36v-134.676c0-1.777-.474-3.522-1.372-5.056l-40.384-68.909c-4.219-7.199-4.313-16.197-.248-23.482l15.949-28.582c4.181-7.493 13.349-10.761 21.317-7.605 8.328 3.297 15.641 6.236 21.735 8.734 4.642 1.902 7.594 6.553 7.346 11.571-.177 3.55-1.916 6.798-4.774 8.912-2.856 2.113-6.471 2.824-9.917 1.953l-11.93-3.017c-5.347-1.351-10.792 1.888-12.146 7.244-1.354 5.354 1.89 10.792 7.244 12.146l11.929 3.016c8.897 2.253 18.212.571 25.751-4.591 5.037 4.096 11.105 6.289 17.256 6.625.385 7.129 3.291 14.146 8.724 19.581 5.43 5.429 12.438 8.334 19.562 8.723.389 7.123 3.294 14.132 8.723 19.561 5.208 5.207 11.867 8.089 18.688 8.661-4.969 8.706-11.083 16.76-18.164 23.841zm56.463-75.347-28.704 28.703c-3.898 3.902-10.243 3.9-14.142 0-3.899-3.898-3.899-10.243 0-14.142l28.704-28.703c1.949-1.949 4.51-2.925 7.07-2.925 2.562 0 5.122.976 7.071 2.925 3.9 3.899 3.9 10.243.001 14.142z"/></g></g></svg>