<?xml version="1.0" encoding="iso-8859-1"?>
<!-- Generator: Adobe Illustrator 19.0.0, SVG Export Plug-In . SVG Version: 6.00 Build 0)  -->
<svg version="1.1" id="Capa_1" xmlns="http://www.w3.org/2000/svg" xmlns:xlink="http://www.w3.org/1999/xlink" x="0px" y="0px"
	 viewBox="0 0 512.001 512.001" style="enable-background:new 0 0 512.001 512.001;" xml:space="preserve">
<g>
	<g>
		<path d="M203.67,220.314c-19.677,0-35.686,16.009-35.686,35.686s16.009,35.686,35.686,35.686
			c19.678,0,35.687-16.009,35.687-35.686S223.348,220.314,203.67,220.314z M203.671,276.686c-11.407,0-20.686-9.279-20.686-20.686
			c0-11.406,9.279-20.686,20.686-20.686s20.687,9.28,20.687,20.686C224.358,267.407,215.078,276.686,203.671,276.686z"/>
	</g>
</g>
<g>
	<g>
		<path d="M364.834,209.909c-5.875-25.429-28.183-43.188-54.249-43.188c-19.102,0-37.188,10.02-47.303,26.212
			c-8.638,13.829-10.741,31.232-5.74,46.739c8.729,27.067,37.87,43.466,65.544,37.073
			C353.023,269.828,371.751,239.846,364.834,209.909z M308.884,263.14c-8.023-0.311-15.503-2.927-21.739-7.29
			c-22.241-15.56-22.765-49.457-1.215-65.835c15,18.675,23.193,41.87,23.193,65.985C309.123,258.378,309.043,260.765,308.884,263.14
			z M324.013,260.877c0.065-1.626,0.11-3.253,0.11-4.877c0-26.441-8.629-51.911-24.476-72.78c0.572-0.158,1.147-0.31,1.729-0.444
			c3.032-0.701,6.131-1.056,9.21-1.056c19.042,0,35.34,12.98,39.634,31.565C354.933,233.69,343.343,254.117,324.013,260.877z"/>
	</g>
</g>
<g>
	<g>
		<path d="M279.443,289.843c-0.219-0.031-0.437-0.065-0.656-0.094c-31.579-4.221-60.924,20.006-62.96,51.743
			c-0.003,0.048-0.006,0.095-0.009,0.143c-0.821,13.33,3.104,26.366,11.277,37.099c10.629,13.958,26.8,21.964,44.371,21.966
			c27.548,0.003,51.489-21.001,55.178-48.249C330.688,322.584,309.279,294.108,279.443,289.843z M230.902,341.98
			c0.926-11.394,6.569-22.341,15.853-29.404c13.54-10.301,32.74-10.998,46.967-1.684c-13.84,22.693-35.609,39.275-61.077,46.524
			C231.03,352.392,230.483,347.14,230.902,341.98z M311.78,350.437c-2.697,19.915-20.21,35.262-40.317,35.262
			c-12.321-0.001-23.69-5.397-31.454-14.84c26.628-8.399,49.478-25.806,64.719-49.306C310.664,329.976,313.17,340.17,311.78,350.437
			z"/>
	</g>
</g>
<g>
	<g>
		<path d="M191.523,341.623c-0.002-0.04-0.005-0.08-0.007-0.12c-1.164-18.312-11.695-35.397-27.535-44.678
			c-10.822-6.34-23.685-8.755-36.082-6.982c-14.391,2.057-27.333,9.579-36.314,21.373c-18.616,24.444-13.873,59.474,10.572,78.089
			c9.788,7.454,21.449,11.394,33.723,11.394C167.503,400.699,193.476,373.232,191.523,341.623z M135.88,385.699
			c-8.963,0-17.482-2.88-24.635-8.327c-17.453-13.291-21.154-38.028-8.63-55.818c15.241,23.499,38.09,40.905,64.718,49.305
			C159.569,380.303,148.2,385.699,135.88,385.699z M176.605,346.555c-0.002,0.04-0.003,0.08-0.004,0.12
			c-0.146,3.607-0.772,7.22-1.905,10.742c-25.468-7.249-47.237-23.831-61.076-46.524c4.903-3.21,10.451-5.316,16.27-6.185
			c0.091-0.013,0.182-0.027,0.274-0.04C154.683,301.276,177.525,321.854,176.605,346.555z"/>
	</g>
</g>
<g>
	<g>
		<path d="M143.141,191.697c-10.113-15.354-27.905-24.976-46.385-24.976c-26.066,0-48.374,17.76-54.249,43.188
			c-3.351,14.502-0.854,29.44,7.031,42.064c10.091,16.155,28.263,26.21,47.308,26.212c24.462,0,45.616-15.649,52.979-38.598
			C154.965,223.567,152.386,205.732,143.141,191.697z M83.328,260.879c-8.724-3.04-16.102-8.905-21.067-16.853
			c-5.763-9.225-7.588-20.142-5.139-30.741c4.293-18.585,20.592-31.565,39.633-31.565c3.693,0,7.379,0.515,10.937,1.501
			C91.848,204.09,83.219,229.559,83.219,256C83.219,257.625,83.263,259.252,83.328,260.879z M137.458,224.539
			c-1.049,20.766-18.226,37.798-39.001,38.602c-0.159-2.376-0.238-4.762-0.238-7.141c0-24.113,8.191-47.303,23.186-65.977
			c0.183,0.139,0.367,0.276,0.547,0.417C132.164,198.466,138.113,211.569,137.458,224.539z"/>
	</g>
</g>
<g>
	<g>
		<path d="M203.671,88.444c-30.725,0-55.722,24.997-55.722,55.722c0,3.628,0.368,7.248,1.081,10.798
			c1.981,9.867,6.624,19.19,13.414,26.65c10.456,11.487,25.682,18.273,41.227,18.273c14.655,0,29.019-5.996,39.388-16.343
			c10.361-10.34,16.334-24.741,16.334-39.378C259.393,113.441,234.396,88.444,203.671,88.444z M241.168,160.043
			c-10.065,23.68-40.896,32.202-61.66,16.876c-5.844-4.314-10.497-10.196-13.337-16.881c-0.011-0.027-0.023-0.055-0.035-0.082
			c-0.048-0.112-0.889-2.186-0.847-2.202c12.206-4.784,25.088-7.206,38.381-7.206c13.293,0,26.176,2.421,38.382,7.206
			C242.062,157.758,241.182,160.011,241.168,160.043z M203.67,135.548c-14.038,0-27.677,2.374-40.682,7.055
			c0.825-21.732,18.752-39.16,40.682-39.16c21.931,0,39.858,17.428,40.683,39.16C231.348,137.922,217.709,135.548,203.67,135.548z"
			/>
	</g>
</g>
<g>
	<g>
		<path d="M504.501,335.67h-31.29c-13.571,0-25.497,1.974-36.46,6.034c-3.884,1.438-5.867,5.754-4.428,9.638
			c1.439,3.885,5.753,5.867,9.638,4.429c9.267-3.432,19.489-5.101,31.25-5.101H497v32.088h-23.79
			c-10.714,0-18.552,1.778-26.206,5.944c-7.884,4.291-15.268,10.954-24.627,20.313c-22.994,22.994-53.565,35.657-86.081,35.657
			h-55.942c5.701-2.325,11.301-4.909,16.767-7.742c13.056-6.734,25.41-14.88,36.785-24.346h2.39
			c23.945,0,46.458-9.325,63.391-26.257c6.824-6.824,12.412-11.933,17.587-16.08c3.232-2.591,3.753-7.311,1.163-10.543
			c-2.59-3.232-7.311-3.753-10.543-1.163c-5.614,4.499-11.592,9.957-18.813,17.179c-10.467,10.467-23.497,17.433-37.672,20.333
			c34.646-36.53,55.933-85.85,55.933-140.051c0-60.951-26.975-118.201-74.007-157.069c-3.193-2.639-7.92-2.189-10.559,1.003
			s-2.189,7.92,1.003,10.559c43.573,36.009,68.563,89.044,68.563,145.507c0,73.021-41.699,136.482-102.533,167.832
			c-24.704,12.662-52.109,19.85-80.077,20.732c-2.013,0.064-4.032,0.107-6.061,0.107C99.637,444.671,15,360.034,15,256
			S99.637,67.329,203.671,67.329c33.892,0,67.139,9.1,96.146,26.317c3.563,2.115,8.164,0.941,10.278-2.621
			c2.114-3.562,0.941-8.164-2.621-10.277C276.151,62.156,240.257,52.33,203.672,52.33C91.367,52.329,0,143.695,0,256
			c0,112.304,91.367,203.671,203.671,203.671c1.776,0,3.547-0.024,5.313-0.069c0.317,0.041,0.638,0.069,0.966,0.069h126.347
			c36.523,0,70.861-14.223,96.688-40.05c18.184-18.185,24.951-21.863,40.226-21.863h31.29c4.142,0,7.5-3.358,7.5-7.5V343.17
			C512.001,339.028,508.643,335.67,504.501,335.67z"/>
	</g>
</g>
<g>
</g>
<g>
</g>
<g>
</g>
<g>
</g>
<g>
</g>
<g>
</g>
<g>
</g>
<g>
</g>
<g>
</g>
<g>
</g>
<g>
</g>
<g>
</g>
<g>
</g>
<g>
</g>
<g>
</g>
</svg>
