<svg id="Capa_1" enable-background="new 0 0 512 512" height="512" viewBox="0 0 512 512" width="512" xmlns="http://www.w3.org/2000/svg"><path d="m166 271.991c22.051 0 39.99-17.939 39.99-39.99s-17.939-39.99-39.99-39.99-39.99 17.939-39.99 39.989 17.939 39.991 39.99 39.991zm0-59.981c11.022 0 19.99 8.968 19.99 19.99s-8.968 19.99-19.99 19.99-19.99-8.968-19.99-19.99 8.968-19.99 19.99-19.99z"/><path d="m346 192.01c-22.051 0-39.99 17.939-39.99 39.99s17.939 39.99 39.99 39.99 39.99-17.939 39.99-39.99-17.939-39.99-39.99-39.99zm0 59.981c-11.022 0-19.99-8.968-19.99-19.99s8.968-19.99 19.99-19.99 19.99 8.968 19.99 19.99-8.967 19.99-19.99 19.99z"/><path d="m106 452h25.104c13.021 16.228 29.254 29.921 47.404 40h-102.508c-5.522 0-10 4.477-10 10s4.478 10 10 10h360c5.522 0 10-4.477 10-10s-4.478-10-10-10h-102.507c18.15-10.079 34.383-23.773 47.403-40h25.104c38.598 0 70-31.402 70-70 0-35.202-26.124-64.406-60-69.274v-9.387c19.117-18.763 30-44.506 30-71.339 0-26.847-10.886-52.589-30-71.333 0-17.036 0-135.78 0-150.667 0-5.523-4.478-10-10-10h-105.001c-5.522 0-10 4.477-10 10s4.478 10 10 10h95.001v10.055c-49.501 1.119-99.845 19.484-139.996 56.117-37.842-34.589-87.53-54.931-140.004-56.117v-10.055h94.999c5.522 0 10-4.477 10-10s-4.478-10-10-10h-104.999c-5.522 0-10 4.477-10 10v30c0 5.523 4.478 10 10 10h5.15c15.107 0 30.158 1.772 44.85 5.247v77.252c-50.463 5.033-90 47.736-90 99.501 0 26.847 10.886 52.589 30 71.333v9.393c-33.876 4.869-60 34.072-60 69.274 0 38.599 31.403 70 70 70zm150 40c-79.258 0-140-64.456-140-140v-33.457c15.097 8.75 32.295 13.457 50 13.457 14.427 0 28.728-3.158 41.773-9.165l41.615 36.667c1.89 1.665 4.251 2.497 6.611 2.497s4.722-.833 6.611-2.497l41.615-36.667c13.047 6.007 27.348 9.165 41.775 9.165 17.707 0 34.906-4.706 50-13.451v33.451c0 75.61-60.798 140-140 140zm-30.173-179.913c12.961-9.696 23.25-22.292 30.173-36.584 6.923 14.292 17.212 26.888 30.173 36.584l-30.173 26.585zm230.173 69.913c0 27.57-22.43 50-50 50h-11.39c14.043-24.209 21.39-51.523 21.39-80v-18.994c22.795 4.646 40 24.848 40 48.994zm-30-150c0 43.975-35.797 80-80 80-44.104 0-80-35.895-80-80v-52.792l81.518-27.173c43.849.832 78.482 36.833 78.482 79.965zm-30-86.542c-12.235-7.091-25.85-11.52-40-12.941v-77.269c13.121-3.103 26.525-4.829 40-5.165zm-147.071-38.386c1.953 1.953 4.512 2.929 7.071 2.929s5.118-.977 7.071-2.929c20.571-20.571 45.58-36.288 72.929-45.95v73.671l-80 26.667-80-26.667v-73.663c27.092 9.557 51.877 24.889 72.929 45.942zm-162.929 124.928c0-43.607 35.075-79.152 78.492-79.962l81.508 27.17v52.792c0 44.104-35.895 80-80 80-44.459 0-80-36.316-80-80zm10 101.007v18.993c0 28.478 7.347 55.791 21.389 80h-11.389c-27.57 0-50-22.43-50-50 0-24.146 17.206-44.348 40-48.993z"/><circle cx="256" cy="10" r="10"/></svg>