<svg height="512pt" viewBox="0 0 512.002 512" width="512pt" xmlns="http://www.w3.org/2000/svg"><path d="m296 107.535156h-22.5v295h22.5c81.332031 0 147.5-66.167968 147.5-147.5 0-81.332031-66.167969-147.5-147.5-147.5zm0 280h-7.5v-265h7.5c73.0625 0 132.5 59.4375 132.5 132.5s-59.4375 132.5-132.5 132.5zm0 0"/><path d="m473.605469 144.765625c-3.234375-4.070313-6.683594-8.050781-10.261719-11.820313l-10.882812 10.320313c3.273437 3.453125 6.433593 7.097656 9.394531 10.824219zm0 0"/><path d="m452.09375 122.070312c-3.890625-3.445312-7.984375-6.757812-12.164062-9.847656l-8.917969 12.058594c3.828125 2.832031 7.574219 5.867188 11.140625 9.023438zm0 0"/><path d="m15 255.035156c0-89.601562 72.898438-162.5 162.5-162.5h61v-15.035156c0-20.675781-16.820312-37.5-37.5-37.5h-22.5v-25h155v25h-22.5c-20.675781 0-37.5 16.824219-37.5 37.5v15.035156h61c29.949219 0 59.210938 8.210938 84.625 23.746094l7.824219-12.800781c-27.769531-16.972657-59.738281-25.945313-92.449219-25.945313h-46v-.035156c0-12.40625 10.09375-22.5 22.5-22.5h37.5v-55h-185v55h37.5c12.40625 0 22.5 10.09375 22.5 22.5v.035156h-46c-97.875 0-177.5 79.625-177.5 177.5 0 51.808594 22.558594 100.898438 61.886719 134.6875l9.773437-11.378906c-36.007812-30.933594-56.660156-75.878906-56.660156-123.308594zm0 0"/><path d="m101.113281 415.300781c4.691407 2.242188 9.542969 4.300781 14.40625 6.113281l5.238281-14.058593c-4.453124-1.65625-8.886718-3.539063-13.183593-5.589844zm0 0"/><path d="m334.5 432.535156c97.875 0 177.503906-79.625 177.503906-177.5 0-34.859375-10.105468-68.609375-29.214844-97.59375l-12.523437 8.257813c17.492187 26.527343 26.734375 57.417969 26.734375 89.335937 0 89.601563-72.894531 162.5-162.5 162.5h-61v15.96875c0 20.675782 16.824219 37.5 37.5 37.5h22.5v25h-155v-25h22.5c20.679688 0 37.5-16.824218 37.5-37.5v-15.96875h-61c-14.632812 0-29.140625-1.945312-43.109375-5.777344l-3.972656 14.464844c15.265625 4.1875 31.105469 6.3125 47.082031 6.3125h46v.96875c0 12.40625-10.09375 22.5-22.5 22.5h-37.5v55h185v-55h-37.5c-12.40625 0-22.5-10.09375-22.5-22.5v-.96875zm0 0"/><path d="m74.191406 399.390625c4.230469 3.03125 8.640625 5.910156 13.109375 8.550781l7.628907-12.914062c-4.089844-2.417969-8.125-5.050782-12-7.828125zm0 0"/><path d="m68.5 255.035156c0 81.332032 66.167969 147.5 147.5 147.5h22.5v-295h-22.5c-81.332031 0-147.5 66.167969-147.5 147.5zm147.5-132.5h7.5v265h-7.5c-73.058594 0-132.5-59.4375-132.5-132.5s59.441406-132.5 132.5-132.5zm0 0"/><path d="m464.5 246.535156h15v15h-15zm0 0"/><path d="m33.5 246.535156h15v15h-15zm0 0"/></svg>