<svg id="Capa_1" enable-background="new 0 0 512.008 512.008" height="512" viewBox="0 0 512.008 512.008" width="512" xmlns="http://www.w3.org/2000/svg"><path d="m436.004 120.008h-67.5v-13.393c0-10.017-3.9-19.434-10.983-26.517l-21.23-21.229c1.421-2.985 2.195-6.267 2.195-9.68 0-6.022-2.334-11.672-6.572-15.91l-26.699-26.7c-8.773-8.771-23.047-8.772-31.82 0-8.772 8.773-8.772 23.047 0 31.82l26.699 26.699c4.238 4.238 9.888 6.572 15.91 6.572 3.413 0 6.695-.774 9.68-2.195l21.23 21.23c4.25 4.25 6.59 9.9 6.59 15.91v13.393h-200v-13.393c0-6.01 2.34-11.661 6.59-15.91l21.23-21.23c2.985 1.421 6.267 2.195 9.68 2.195 6.021 0 11.672-2.334 15.91-6.572l26.699-26.698c8.772-8.772 8.772-23.046 0-31.82-8.773-8.773-23.048-8.773-31.82 0l-26.699 26.699c-4.238 4.238-6.572 9.888-6.572 15.91 0 3.413.774 6.695 2.195 9.68l-21.23 21.229c-7.083 7.083-10.983 16.5-10.983 26.517v13.393h-62.5c-4.142 0-7.5 3.358-7.5 7.5v90c0 4.142 3.358 7.5 7.5 7.5h52.5v242h-22.5c-4.142 0-7.5 3.358-7.5 7.5v30c0 4.142 3.358 7.5 7.5 7.5h300c4.142 0 7.5-3.358 7.5-7.5v-30c0-4.142-3.358-7.5-7.5-7.5h-22.5v-242h52.5c4.142 0 7.5-3.358 7.5-7.5v-90c0-4.142-3.358-7.5-7.5-7.5zm-114.697-65.516c-1.405 1.405-3.288 2.178-5.303 2.178s-3.898-.773-5.303-2.178l-26.699-26.699c-2.924-2.924-2.924-7.683 0-10.607 2.925-2.924 7.683-2.923 10.606 0l26.699 26.699c1.405 1.405 2.179 3.289 2.179 5.304s-.774 3.898-2.179 5.303zm-135.606-10.607 26.699-26.699c1.462-1.462 3.383-2.193 5.304-2.193 1.92 0 3.841.731 5.303 2.193 2.924 2.924 2.925 7.683 0 10.607l-26.699 26.699c-1.405 1.405-3.288 2.178-5.303 2.178s-3.898-.773-5.303-2.179c-1.405-1.405-2.179-3.288-2.179-5.303-.001-2.014.773-3.897 2.178-5.303zm212.803 438.123v15h-285v-15h52.5c4.142 0 7.5-3.358 7.5-7.5s-3.358-7.5-7.5-7.5h-22.5v-242h225v242h-172.5c-4.142 0-7.5 3.358-7.5 7.5s3.358 7.5 7.5 7.5zm30-272h-345v-75h345z"/></svg>